<svg xmlns="http://www.w3.org/2000/svg" xmlns:xlink="http://www.w3.org/1999/xlink" width="71.641" height="87.421" viewBox="0 0 71.641 87.421">
  <defs>
    <clipPath id="clip-path">
      <rect id="Rectangle_52" data-name="Rectangle 52" width="71.641" height="87.421" fill="none"/>
    </clipPath>
  </defs>
  <g id="Group_87" data-name="Group 87" transform="translate(0 0)">
    <g id="Group_86" data-name="Group 86" transform="translate(0 0)" clip-path="url(#clip-path)">
      <path id="Path_99" data-name="Path 99" d="M29.251,40.648c11.465,0,20.837-9.141,20.837-20.324S40.716,0,29.251,0,8.414,9.141,8.414,20.324s9.372,20.324,20.837,20.324m0-35.981A16.015,16.015,0,0,1,45.4,20.42,15.934,15.934,0,0,1,29.251,36.077,16.015,16.015,0,0,1,13.1,20.324,15.934,15.934,0,0,1,29.251,4.668" transform="translate(6.521 -0.001)" fill="#1d526e"/>
      <path id="Path_100" data-name="Path 100" d="M70.866,51.378a41.318,41.318,0,0,0-13.46-18.963,35.424,35.424,0,0,0-21.634-7.391,35.038,35.038,0,0,0-21.536,7.489A40.6,40.6,0,0,0,.778,51.473,13.542,13.542,0,0,0,2.57,63.921a11.506,11.506,0,0,0,9.273,4.863H59.8a11.236,11.236,0,0,0,9.273-4.863A13.737,13.737,0,0,0,70.866,51.378ZM65.182,61.1A6.926,6.926,0,0,1,59.7,64.019H11.744A6.923,6.923,0,0,1,6.261,61.1a9.018,9.018,0,0,1-1.2-8.267A36.61,36.61,0,0,1,17.028,36.012a29.932,29.932,0,0,1,37.288,0A36.622,36.622,0,0,1,66.279,52.834,8.68,8.68,0,0,1,65.182,61.1Z" transform="translate(0 18.638)" fill="#1d526e"/>
    </g>
  </g>
</svg>
