<svg xmlns="http://www.w3.org/2000/svg" viewBox="0 0 23.12 32.74"><defs><style>.cls-1{fill:#2e627f;}</style></defs><g id="Warstwa_2" data-name="Warstwa 2"><g id="Warstwa_1-2" data-name="Warstwa 1"><path class="cls-1" d="M11.56,32.74a1.25,1.25,0,0,0,.82-.41c.41-.61,10.74-14.63,10.74-20.67A11.64,11.64,0,0,0,11.56,0,11.62,11.62,0,0,0,0,11.56c0,6,10.33,20.16,10.74,20.67a1,1,0,0,0,.82.51Zm0-30.69a9.55,9.55,0,0,1,9.51,9.51c0,4.1-6.24,13.71-9.51,18.32C8.29,25.27,2.05,15.66,2.05,11.56A9.55,9.55,0,0,1,11.56,2.05Z"/><path class="cls-1" d="M17.6,11.26a6,6,0,0,0-6-6,6,6,0,1,0,0,12.07A6,6,0,0,0,17.6,11.26Zm-10,0a4,4,0,0,1,4-4,3.93,3.93,0,0,1,4,4,3.93,3.93,0,0,1-4,4A4,4,0,0,1,7.57,11.26Z"/></g></g></svg>