<svg xmlns="http://www.w3.org/2000/svg" viewBox="0 0 22 22"><defs><style>.cls-1{fill:#2f6784;}</style></defs><g id="Warstwa_2" data-name="Warstwa 2"><g id="Warstwa_1-2" data-name="Warstwa 1"><g id="Page-1"><g id="ic-love"><path id="Oval-32" class="cls-1" d="M11,20a9,9,0,1,0-9-9A9,9,0,0,0,11,20Zm0,2A11,11,0,1,1,22,11,11,11,0,0,1,11,22Zm2.29-7.71a1,1,0,0,1,1.42,1.42,4.13,4.13,0,0,1-1,.68A6,6,0,0,1,11,17a6,6,0,0,1-2.7-.61,4.13,4.13,0,0,1-1-.68,1,1,0,1,1,1.42-1.42.3.3,0,0,0,.08.07,3.36,3.36,0,0,0,.41.25A4,4,0,0,0,11,15a4,4,0,0,0,1.8-.39,3.36,3.36,0,0,0,.41-.25A.3.3,0,0,0,13.29,14.29Zm-6-2.52S5,11.37,4.2,10.3c-.6-.75-.72-2,.4-2.39s1.34.19,1.34.19-.21-.59.91-1,1.81.62,1.84,1.58C8.74,10,7.28,11.77,7.28,11.77Zm7.44,0S13.26,10,13.31,8.67c0-1,.73-2,1.85-1.58s.9,1,.9,1,.22-.59,1.34-.19,1,1.64.4,2.39C17,11.37,14.72,11.77,14.72,11.77Z"/></g></g></g></g></svg>