<svg xmlns="http://www.w3.org/2000/svg" viewBox="0 0 52.56 52.39"><defs><style>.cls-1{fill:#2e6683;}</style></defs><g id="Warstwa_2" data-name="Warstwa 2"><g id="Warstwa_1-2" data-name="Warstwa 1"><path class="cls-1" d="M49.17,4.58V.66A.65.65,0,0,0,48.52,0H24.8a.66.66,0,0,0-.66.66V4.58l-2.71,6.35a8.3,8.3,0,0,0-.68,3.3v5.51H9.14A8.3,8.3,0,0,0,.86,28v.76A2.32,2.32,0,0,0,2.4,31v2.36A2.75,2.75,0,0,0,0,36v.66a2.75,2.75,0,0,0,1.7,2.54,3.49,3.49,0,0,0-.82,2.58.66.66,0,0,0,.65.56,2.81,2.81,0,0,1,.92.13V44.9a2.36,2.36,0,0,0-1,.7,2.49,2.49,0,0,0-.56,2l.25,1.51A3.9,3.9,0,0,0,5,52.39h22.6a3.89,3.89,0,0,0,3.71-2.68H51.91a.66.66,0,0,0,.65-.66V14.23a8.43,8.43,0,0,0-.67-3.3ZM25.46,1.31h22.4V4H25.46ZM2.18,28a7,7,0,0,1,7-7H23.31a7,7,0,0,1,7,7v.76a1,1,0,0,1-1,1H3.19a1,1,0,0,1-1-1V28Zm1.54,5.24V31.11H28.93v2.15H18A5.88,5.88,0,0,0,13.83,35l-1.49,1.49L10.84,35a5.88,5.88,0,0,0-4.16-1.71ZM1.31,36a1.46,1.46,0,0,1,1.47-1.45h.34l.08,0H6.68A4.62,4.62,0,0,1,9.92,35.9l1.95,2a.66.66,0,0,0,.93,0l2-2A4.58,4.58,0,0,1,18,34.57h11.6l.1,0a.58.58,0,0,0,.18,0A1.46,1.46,0,0,1,31.34,36v.66a1.46,1.46,0,0,1-1.47,1.45H2.78A1.46,1.46,0,0,1,1.31,36.7V36Zm2.12,3.47s0,0,.06,0H29.23a3.21,3.21,0,0,1,1.13,1.66,4.29,4.29,0,0,0-1.39.49,3.2,3.2,0,0,1-3.1,0,4.55,4.55,0,0,0-4.3,0A2.82,2.82,0,0,1,20,42a2.82,2.82,0,0,1-1.55-.4,4.19,4.19,0,0,0-2.15-.54,4.22,4.22,0,0,0-2.15.54,2.82,2.82,0,0,1-1.55.4,2.78,2.78,0,0,1-1.54-.4,4.22,4.22,0,0,0-2.15-.54,4.19,4.19,0,0,0-2.15.54,2.82,2.82,0,0,1-1.55.4,2.82,2.82,0,0,1-1.55-.4,4.25,4.25,0,0,0-1.47-.5,2.3,2.3,0,0,1,1.22-1.6Zm.34,5.22V43.09a4,4,0,0,0,1.46.24,4.11,4.11,0,0,0,2.15-.55,2.88,2.88,0,0,1,1.55-.4,2.86,2.86,0,0,1,1.54.4,4.11,4.11,0,0,0,2.15.55,4.11,4.11,0,0,0,2.15-.55,3.2,3.2,0,0,1,3.1,0,4.48,4.48,0,0,0,4.3,0,3.2,3.2,0,0,1,3.1,0,4.08,4.08,0,0,0,2.15.55A4.17,4.17,0,0,0,29,43.06v1.67H26.15a6.24,6.24,0,0,0-4.4,1.8l-1.39,1.39L19,46.54a6.2,6.2,0,0,0-4.4-1.81Zm23.86,6.35H5a2.59,2.59,0,0,1-2.57-2.16l-.25-1.51a1.14,1.14,0,0,1,.26-1A1.2,1.2,0,0,1,3.18,46H14.57A4.86,4.86,0,0,1,18,47.47l1.86,1.84a.66.66,0,0,0,.47.19.63.63,0,0,0,.46-.19l1.86-1.84A4.9,4.9,0,0,1,26.15,46h3.32a1.19,1.19,0,0,1,1,1.37l-.26,1.51a2.59,2.59,0,0,1-2.56,2.16Zm23.62-2.69H31.61l.13-.77a2.48,2.48,0,0,0-.56-2,2.33,2.33,0,0,0-.89-.67V42.48a3.08,3.08,0,0,1,.83-.1.65.65,0,0,0,.65-.65,4.33,4.33,0,0,0-.9-2.46,2.76,2.76,0,0,0,1.78-2.57V36a2.76,2.76,0,0,0-2.41-2.73V30.88a2.32,2.32,0,0,0,1.34-2.1V28a8.28,8.28,0,0,0-8.28-8.28H22.07V14.23a7.2,7.2,0,0,1,.56-2.79l2.63-6.13h22.8l2.62,6.13a7.21,7.21,0,0,1,.57,2.79V48.39Z"/><path class="cls-1" d="M44.57,10H28.78a.66.66,0,0,0-.66.66v9.11a.65.65,0,0,0,.66.65H44.57a.65.65,0,0,0,.65-.65V10.62a.66.66,0,0,0-.65-.66Zm-.66,9.11H29.43V11.28H43.91Z"/><path class="cls-1" d="M32.79,14.42h7.77a.66.66,0,0,0,0-1.31H32.79a.66.66,0,1,0,0,1.31Z"/><path class="cls-1" d="M32.79,17.24h7.77a.66.66,0,0,0,0-1.32H32.79a.66.66,0,0,0,0,1.32Z"/><path class="cls-1" d="M13.13,23.51a.66.66,0,0,0,.5.22.64.64,0,0,0,.43-.16.66.66,0,0,0,.06-.93l-.41-.48a.66.66,0,0,0-1,.87Z"/><path class="cls-1" d="M21,23.27a.66.66,0,0,0,.5.22.64.64,0,0,0,.43-.16A.66.66,0,0,0,22,22.4l-.41-.47a.65.65,0,0,0-.93-.07.66.66,0,0,0-.06.93Z"/><path class="cls-1" d="M15.06,26.29a.59.59,0,0,0,.23,0l.6-.23a.66.66,0,1,0-.47-1.23l-.59.23a.66.66,0,0,0,.23,1.27Z"/><path class="cls-1" d="M5.39,27a.59.59,0,0,0,.23,0l.6-.23a.64.64,0,0,0,.38-.84.66.66,0,0,0-.85-.38l-.59.22A.66.66,0,0,0,5.39,27Z"/><path class="cls-1" d="M7.73,24a.59.59,0,0,0,.23,0l.6-.23a.66.66,0,0,0-.47-1.23l-.59.23a.66.66,0,0,0-.38.85A.64.64,0,0,0,7.73,24Z"/><path class="cls-1" d="M17.26,23.85a.69.69,0,0,0,.24-.05l.59-.22a.66.66,0,1,0-.47-1.23l-.59.23a.66.66,0,0,0,.23,1.27Z"/><path class="cls-1" d="M24.44,24.63a.67.67,0,0,0,.24,0l.59-.23a.66.66,0,1,0-.47-1.23l-.59.23a.66.66,0,0,0,.23,1.27Z"/><path class="cls-1" d="M10.1,25.53l.63.09h.09a.66.66,0,0,0,.65-.57.65.65,0,0,0-.55-.74l-.64-.09a.65.65,0,0,0-.74.55.66.66,0,0,0,.56.75Z"/><path class="cls-1" d="M23.72,26.69l.63.1h.09a.66.66,0,0,0,.65-.56.65.65,0,0,0-.55-.74l-.63-.1a.66.66,0,0,0-.75.56.65.65,0,0,0,.56.74Z"/><path class="cls-1" d="M26.78,26.34a.65.65,0,0,0,.93-.1.65.65,0,0,0-.11-.92l-.49-.4a.66.66,0,1,0-.82,1Z"/></g></g></svg>