<svg xmlns="http://www.w3.org/2000/svg" viewBox="0 0 329.23 151.14"><defs><style>.cls-1,.cls-5{font-size:72px;}.cls-1{fill:#5d9aa8;font-family:Lato-Light, Lato;font-weight:300;}.cls-2{letter-spacing:-0.01em;}.cls-3{letter-spacing:-0.01em;}.cls-4{letter-spacing:0em;}.cls-5{fill:#548293;font-family:Lato-Bold, Lato;font-weight:700;}.cls-6{letter-spacing:-0.03em;}.cls-7{letter-spacing:-0.02em;}.cls-8{fill:#2f6784;}</style></defs><g id="Warstwa_2" data-name="Warstwa 2"><g id="Warstwa_1-2" data-name="Warstwa 1"><text class="cls-1" transform="translate(0 107.92)"><tspan class="cls-2">r</tspan><tspan class="cls-3" x="24.69" y="0">a</tspan><tspan class="cls-4" x="59.15" y="0">t</tspan><tspan x="83.7" y="0">e</tspan></text><text class="cls-5" transform="translate(127.07 130.62)"><tspan class="cls-6">R</tspan><tspan x="43.88" y="0">out</tspan><tspan class="cls-7" x="152.64" y="0">y</tspan></text><path id="Oval-32" class="cls-8" d="M127.46,34.47a10.64,10.64,0,0,0,10.47-10.8,10.47,10.47,0,1,0-20.93,0A10.64,10.64,0,0,0,127.46,34.47Zm0,2.4a13,13,0,0,1-12.79-13.2,12.8,12.8,0,1,1,25.58,0A13,13,0,0,1,127.46,36.87Z"/><path class="cls-8" d="M127.49,71.21a2.8,2.8,0,0,0,1.78-.89c.89-1.34,23.36-31.82,23.36-44.95a25.15,25.15,0,1,0-50.29-.22c0,13.12,22.48,43.83,23.37,44.94a2.26,2.26,0,0,0,1.78,1.12Zm0-66.76a20.8,20.8,0,0,1,20.69,20.7c0,8.9-13.57,29.81-20.69,39.83-7.12-10-20.7-30.93-20.7-39.83A20.81,20.81,0,0,1,127.49,4.45Z"/></g></g></svg>