<svg xmlns="http://www.w3.org/2000/svg" viewBox="0 0 43.88 49.43"><defs><style>.cls-1{fill:#2e6481;}</style></defs><g id="Warstwa_2" data-name="Warstwa 2"><g id="Warstwa_1-2" data-name="Warstwa 1"><path class="cls-1" d="M43.43.15a.78.78,0,0,0-.92,0,16.93,16.93,0,0,0-7.77,14.58v15a.92.92,0,0,0,.91,1h.92V45.22a3.91,3.91,0,0,0,3.66,4.11,3.91,3.91,0,0,0,3.65-4.11V1.08a1.47,1.47,0,0,0-.45-.93ZM36.57,14.73a15.09,15.09,0,0,1,5.48-11.8V28.8H36.57Zm5.48,30.49a1.84,1.84,0,1,1-3.65,0V30.75h3.65Z"/><path class="cls-1" d="M22.86.05c-3.57,0-6.4,3.9-6.4,8.73,0,4.41,2.37,8,5.48,8.62V30.85H20.11a.92.92,0,0,0-.91,1V45.33a3.91,3.91,0,0,0,3.66,4.1,3.91,3.91,0,0,0,3.65-4.1V31.77a.91.91,0,0,0-.91-1H23.77V17.4c3.11-.61,5.48-4.21,5.48-8.62C29.26,4,26.33.05,22.86.05Zm1.82,45.17a2,2,0,0,1-1.82,2.06A2,2,0,0,1,21,45.22V32.8h3.65ZM22.86,15.45c-2.56,0-4.58-3-4.58-6.67s2-6.67,4.58-6.67,4.57,3,4.57,6.67S25.32,15.45,22.86,15.45Z"/><path class="cls-1" d="M11.89.05a.93.93,0,0,0-.92,1V11.35H7.31V1.08a.92.92,0,1,0-1.82,0V11.35H1.83V1.08A.92.92,0,1,0,0,1.08V14.42a7,7,0,0,0,5.49,7.09v9.34H3.66a.93.93,0,0,0-.92,1V45.33a3.92,3.92,0,0,0,3.66,4.1,3.92,3.92,0,0,0,3.66-4.1V31.77a.92.92,0,0,0-.92-1H7.31V21.4a7,7,0,0,0,5.49-7.08V1a.89.89,0,0,0-.91-.92ZM8.23,45.22A2,2,0,0,1,6.4,47.28a2,2,0,0,1-1.83-2.06V32.8H8.23ZM11,14.42c0,2.88-2,5.14-4.57,5.14S1.83,17.3,1.83,14.42v-1H11Z"/></g></g></svg>