<svg xmlns="http://www.w3.org/2000/svg" xmlns:xlink="http://www.w3.org/1999/xlink" width="63.056" height="71.031" viewBox="0 0 63.056 71.031">
  <defs>
    <clipPath id="clip-path">
      <rect id="Rectangle_45" data-name="Rectangle 45" width="63.056" height="71.031" transform="translate(0 0)" fill="none"/>
    </clipPath>
  </defs>
  <g id="Group_70" data-name="Group 70" transform="translate(0 0)">
    <g id="Group_69" data-name="Group 69" clip-path="url(#clip-path)">
      <path id="Path_83" data-name="Path 83" d="M62.4.221a1.086,1.086,0,0,0-1.314,0c-6.831,4.131-11.166,12.1-11.166,20.949V42.708a1.324,1.324,0,0,0,1.314,1.476h1.314v20.8c0,3.246,2.364,5.9,5.254,5.9s5.255-2.655,5.255-5.9V1.55A2.048,2.048,0,0,0,62.4.222ZM52.547,21.17A21.688,21.688,0,0,1,60.429,4.2V41.38H52.546Zm7.882,43.814a2.645,2.645,0,1,1-5.254,0v-20.8h5.255Z" fill="#1d526e"/>
      <path id="Path_84" data-name="Path 84" d="M32.842.074c-5.123,0-9.2,5.606-9.2,12.539,0,6.344,3.416,11.507,7.882,12.392V44.33H28.9a1.324,1.324,0,0,0-1.314,1.475V65.13c0,3.246,2.365,5.9,5.255,5.9s5.255-2.655,5.255-5.9V45.657a1.325,1.325,0,0,0-1.314-1.476H34.156V25c4.467-.885,7.882-6.048,7.882-12.392,0-6.933-4.2-12.539-9.195-12.539Zm2.627,64.909a2.811,2.811,0,0,1-2.627,2.951,2.811,2.811,0,0,1-2.627-2.951V47.133h5.255ZM32.842,22.2c-3.678,0-6.569-4.278-6.569-9.589s2.891-9.589,6.569-9.589,6.569,4.279,6.569,9.589S36.389,22.2,32.842,22.2" fill="#1d526e"/>
      <path id="Path_85" data-name="Path 85" d="M17.079.074a1.324,1.324,0,0,0-1.314,1.475V16.3H10.51V1.549a1.322,1.322,0,1,0-2.627,0V16.3H2.628V1.549A1.323,1.323,0,1,0,0,1.549V20.727c0,5.163,3.416,9.442,7.882,10.179V44.33H5.255a1.324,1.324,0,0,0-1.314,1.476V65.13c0,3.246,2.365,5.9,5.255,5.9s5.255-2.655,5.255-5.9V45.657a1.324,1.324,0,0,0-1.314-1.475H10.511V30.757c4.466-.737,7.881-5.015,7.881-10.178V1.4A1.279,1.279,0,0,0,17.079.073Zm-5.255,64.91A2.811,2.811,0,0,1,9.2,67.934a2.811,2.811,0,0,1-2.627-2.95V47.133h5.254Zm3.941-44.257c0,4.131-2.89,7.376-6.569,7.376s-6.568-3.245-6.568-7.376V19.252H15.765Z" fill="#1d526e"/>
    </g>
  </g>
</svg>
