<svg xmlns="http://www.w3.org/2000/svg" viewBox="0 0 52.99 53.04"><defs><style>.cls-1{fill:#2d607d;}</style></defs><g id="Warstwa_2" data-name="Warstwa 2"><g id="Warstwa_1-2" data-name="Warstwa 1"><path class="cls-1" d="M51.55,0a1.67,1.67,0,0,0-.3.08L12.17,15.85h0a1.28,1.28,0,0,0-.69.68,1.26,1.26,0,0,0,.67,1.66,1.28,1.28,0,0,0,1,0L49.46,3.54,31.58,47.91,25.81,28.06a1.28,1.28,0,0,0-.87-.85L5.11,21.41l3.06-1.22h0a1.24,1.24,0,0,0,.69-.68,1.3,1.3,0,0,0,0-1,1.28,1.28,0,0,0-.68-.69,1.3,1.3,0,0,0-1,0L.8,20.45a1.26,1.26,0,0,0,.11,2.38l22.67,6.61,6.6,22.69a1.27,1.27,0,0,0,2.39.12L52.89,1.75A1.27,1.27,0,0,0,52.72.49,1.25,1.25,0,0,0,51.55,0Z"/></g></g></svg>