<svg xmlns="http://www.w3.org/2000/svg" viewBox="0 0 51.95 58.61"><defs><style>.cls-1{fill:#2e6582;}</style></defs><g id="Warstwa_2" data-name="Warstwa 2"><g id="Warstwa_1-2" data-name="Warstwa 1"><path class="cls-1" d="M26,0a5.35,5.35,0,0,0-5.33,5.33,22.2,22.2,0,0,0-16.55,20H1.21A1.34,1.34,0,0,0,0,26.64V31.3a1.34,1.34,0,0,0,1.33,1.34H50.62A1.33,1.33,0,0,0,52,31.3V26.64a1.33,1.33,0,0,0-1.33-1.33H6.74a19.25,19.25,0,0,1,37.82-3.64,1.33,1.33,0,0,0,.59.9,1.33,1.33,0,0,0,1.91-.51A1.28,1.28,0,0,0,47.12,21,22.06,22.06,0,0,0,31.3,5.31,5.34,5.34,0,0,0,26,0Zm0,2.66a2.62,2.62,0,0,1,2.6,2.15,21.29,21.29,0,0,0-5.21,0A2.62,2.62,0,0,1,26,2.66ZM2.66,28H49.29v2H2.66Zm24,6.67A3.35,3.35,0,0,0,23.31,38a3.27,3.27,0,0,0,1.08,2.45,4,4,0,0,0,2,.85h0l3.61.46-3.23.81-12.34-7a1.87,1.87,0,0,0-.32-.15,3.52,3.52,0,0,0-.87-.1A3.35,3.35,0,0,0,10,38.63a3.32,3.32,0,0,0,1.29,2.62l0,0L24.52,51a1.37,1.37,0,0,0,.79.25H35.65L50,58.47a1.32,1.32,0,0,0,1.29,0A1.35,1.35,0,0,0,52,57.28v-16a1.33,1.33,0,0,0-.87-1.25L36.42,34.72a1.39,1.39,0,0,0-.45-.09Zm0,2.66h9.1l13.55,4.93V55.12L36.57,48.77a1.27,1.27,0,0,0-.6-.15H25.77L12.9,39.15l0,0a.64.64,0,0,1-.23-.5.66.66,0,0,1,.67-.67h0L26,45.12a1.27,1.27,0,0,0,1,.13l10.66-2.66A1.34,1.34,0,0,0,37.46,40L26.83,38.63h0a1.58,1.58,0,0,1-.71-.25C26,38.3,26,38.31,26,38a.64.64,0,0,1,.66-.66Z"/></g></g></svg>