<svg xmlns="http://www.w3.org/2000/svg" viewBox="0 0 50.28 37.58"><defs><style>.cls-1{fill:#2e6582;}</style></defs><g id="Warstwa_2" data-name="Warstwa 2"><g id="Warstwa_1-2" data-name="Warstwa 1"><path class="cls-1" d="M45,6.26H38.55L36.77.73A1,1,0,0,0,35.72,0H22.94a1.26,1.26,0,0,0-1.05.73L20.11,6.26H13.2V3.65a1,1,0,0,0-1-1h-6a1,1,0,0,0-1,1V6.26A5.29,5.29,0,0,0,0,11.48V32.36a5.18,5.18,0,0,0,5.24,5.22H45a5.18,5.18,0,0,0,5.24-5.22V11.48A5.18,5.18,0,0,0,45,6.26ZM23.78,2.09H35.09l1.36,4.17h-14ZM11.21,4.7V6.26h-4V4.7Zm37,27.66A3.08,3.08,0,0,1,45,35.49H5.24A3.07,3.07,0,0,1,2.1,32.36V11.48A3.08,3.08,0,0,1,5.24,8.35H45a3.09,3.09,0,0,1,3.15,3.13Z"/><path class="cls-1" d="M29.33,10.44A11.48,11.48,0,1,0,40.85,21.92,11.46,11.46,0,0,0,29.33,10.44Zm0,20.88a9.4,9.4,0,1,1,9.43-9.4,9.38,9.38,0,0,1-9.43,9.4Z"/><path class="cls-1" d="M29.33,14.62a7.31,7.31,0,1,0,7.33,7.3,7.27,7.27,0,0,0-7.33-7.3Zm0,12.52a5.22,5.22,0,1,1,5.24-5.22A5.18,5.18,0,0,1,29.33,27.14Z"/><path class="cls-1" d="M10.37,12.42a1,1,0,0,0-1,1.05V30.8a1,1,0,0,0,1,1,1,1,0,0,0,1.05-1V13.47a1.06,1.06,0,0,0-1.05-1.05Z"/><path class="cls-1" d="M43.16,11.9H41.69a1,1,0,1,0,0,2.09h1.47a1,1,0,0,0,1.05-1.05A1.05,1.05,0,0,0,43.16,11.9Z"/></g></g></svg>