<svg xmlns="http://www.w3.org/2000/svg" viewBox="0 0 35.96 36.19"><defs><style>.cls-1{fill:#2e6582;}</style></defs><g id="Warstwa_2" data-name="Warstwa 2"><g id="Warstwa_1-2" data-name="Warstwa 1"><path class="cls-1" d="M.44,35.75a1.5,1.5,0,0,0,1.06.44,1.53,1.53,0,0,0,1.06-.44L18,20.24,33.38,35.75a1.5,1.5,0,0,0,2.12-2.13L20.09,18.11,35.5,2.59A1.54,1.54,0,0,0,36,1.52,1.56,1.56,0,0,0,35.52.44,1.54,1.54,0,0,0,34.45,0a1.48,1.48,0,0,0-1.07.46L18,16,2.56.46A1.5,1.5,0,0,0,.44,2.59L15.85,18.11.44,33.62A1.5,1.5,0,0,0,0,34.68a1.52,1.52,0,0,0,.44,1.07Z"/></g></g></svg>