<svg xmlns="http://www.w3.org/2000/svg" xmlns:xlink="http://www.w3.org/1999/xlink" width="98" height="98" viewBox="0 0 98 98">
  <defs>
    <clipPath id="clip-path">
      <rect id="Rectangle_72" data-name="Rectangle 72" width="98" height="98" transform="translate(0)" fill="none"/>
    </clipPath>
  </defs>
  <g id="Group_133" data-name="Group 133" transform="translate(0.074 0.227)">
    <g id="Group_132" data-name="Group 132" transform="translate(-0.074 -0.227)" clip-path="url(#clip-path)">
      <path id="Path_129" data-name="Path 129" d="M48.808,88.9a40,40,0,1,0-39.934-40,39.967,39.967,0,0,0,39.934,40m0,8.89A48.894,48.894,0,1,1,97.617,48.894,48.852,48.852,0,0,1,48.808,97.788M31.06,48.894A8.89,8.89,0,1,0,22.186,40a8.88,8.88,0,0,0,8.874,8.89m35.5,0A8.89,8.89,0,1,1,75.431,40a8.882,8.882,0,0,1-8.874,8.89M32.36,67.976a17.447,17.447,0,0,1,4.481-3.054,26.475,26.475,0,0,1,11.967-2.694,26.475,26.475,0,0,1,11.967,2.694,17.447,17.447,0,0,1,4.481,3.054,4.44,4.44,0,0,1-6.274,6.285s-.115-.1-.355-.28a11.959,11.959,0,0,0-1.819-1.107,17.662,17.662,0,0,0-8-1.756,17.662,17.662,0,0,0-8,1.756,11.682,11.682,0,0,0-1.815,1.107c-.244.182-.364.284-.359.28a4.44,4.44,0,0,1-6.274-6.285" transform="translate(0.085 0.242)" fill="#1e5572"/>
    </g>
  </g>
</svg>
