<svg xmlns="http://www.w3.org/2000/svg" xmlns:xlink="http://www.w3.org/1999/xlink" width="98" height="98" viewBox="0 0 98 98">
  <defs>
    <clipPath id="clip-path">
      <rect id="Rectangle_70" data-name="Rectangle 70" width="98" height="98" fill="none"/>
    </clipPath>
  </defs>
  <g id="Group_128" data-name="Group 128" clip-path="url(#clip-path)">
    <path id="Path_127" data-name="Path 127" d="M48.912,88.94A40.023,40.023,0,1,0,8.894,48.917,40.02,40.02,0,0,0,48.912,88.94m0,8.894A48.917,48.917,0,1,1,97.829,48.917,48.914,48.914,0,0,1,48.912,97.834m10.2-34.273A4.448,4.448,0,0,1,65.4,69.849,17.568,17.568,0,0,1,60.91,72.9a26.591,26.591,0,0,1-12,2.695A26.586,26.586,0,0,1,36.919,72.9a17.61,17.61,0,0,1-4.487-3.055,4.446,4.446,0,0,1,6.288-6.288c-.009,0,.116.1.356.28A11.9,11.9,0,0,0,40.9,64.953,17.723,17.723,0,0,0,48.912,66.7a17.729,17.729,0,0,0,8.018-1.752,12.119,12.119,0,0,0,1.823-1.112c.245-.182.365-.285.356-.28M32.361,52.35s-9.992-1.805-13.706-6.533c-2.637-3.357-3.166-8.836,1.81-10.651s5.955.849,5.955.849-.925-2.642,4.025-4.478,8.076,2.73,8.214,7c.2,6.017-6.3,13.812-6.3,13.812m33.108,0s-6.493-7.809-6.3-13.812c.142-4.269,3.255-8.805,8.236-7s4.011,4.474,4.011,4.474.992-2.615,5.968-.84,4.429,7.284,1.788,10.642c-3.713,4.736-13.7,6.533-13.7,6.533" transform="translate(0 0)" fill="#1e5572"/>
  </g>
</svg>
