<svg xmlns="http://www.w3.org/2000/svg" xmlns:xlink="http://www.w3.org/1999/xlink" width="98" height="98" viewBox="0 0 98 98">
  <defs>
    <clipPath id="clip-path">
      <rect id="Rectangle_71" data-name="Rectangle 71" width="98" height="98" fill="none"/>
    </clipPath>
  </defs>
  <g id="Group_130" data-name="Group 130" clip-path="url(#clip-path)">
    <path id="Path_128" data-name="Path 128" d="M49,89.091A40.091,40.091,0,1,0,8.909,49,40.088,40.088,0,0,0,49,89.091M49,98A49,49,0,1,1,98,49,49,49,0,0,1,49,98M31.182,49a8.909,8.909,0,1,1,8.909-8.909A8.909,8.909,0,0,1,31.182,49m1.305,20.968a4.455,4.455,0,0,1,6.3-6.3c-.009,0,.111.1.356.281a11.918,11.918,0,0,0,1.826,1.114A17.739,17.739,0,0,0,49,66.818a17.759,17.759,0,0,0,8.032-1.755,12.14,12.14,0,0,0,1.826-1.114c.245-.183.365-.285.356-.281a4.455,4.455,0,0,1,6.3,6.3,17.68,17.68,0,0,1-4.5,3.06A26.636,26.636,0,0,1,49,75.727a26.617,26.617,0,0,1-12.014-2.7,17.6,17.6,0,0,1-4.5-3.06M59.1,44.545a8.907,8.907,0,1,1,15.435,0,8.913,8.913,0,0,0-15.435,0" fill="#1e5572"/>
  </g>
</svg>
