<svg xmlns="http://www.w3.org/2000/svg" viewBox="0 0 22 22"><defs><style>.cls-1{fill:#2f6784;}</style></defs><g id="Warstwa_2" data-name="Warstwa 2"><g id="Warstwa_1-2" data-name="Warstwa 1"><g id="Page-1"><g id="ic-blink"><path id="Combined-Shape" class="cls-1" d="M11,20a9,9,0,1,0-9-9A9,9,0,0,0,11,20Zm0,2A11,11,0,1,1,22,11,11,11,0,0,1,11,22ZM7,11A2,2,0,1,1,9,9,2,2,0,0,1,7,11Zm.29,4.71a1,1,0,1,1,1.42-1.42.3.3,0,0,0,.08.07,3.36,3.36,0,0,0,.41.25A4,4,0,0,0,11,15a4,4,0,0,0,1.8-.39,3.36,3.36,0,0,0,.41-.25.3.3,0,0,0,.08-.07,1,1,0,0,1,1.42,1.42,4.13,4.13,0,0,1-1,.68A6,6,0,0,1,11,17a6,6,0,0,1-2.7-.61A4.13,4.13,0,0,1,7.29,15.71Zm6-5.71a2,2,0,1,1,3.46,0,2,2,0,0,0-3.46,0Z"/></g></g></g></g></svg>