<svg xmlns="http://www.w3.org/2000/svg" xmlns:xlink="http://www.w3.org/1999/xlink" viewBox="0 0 20.08 28.57"><defs><style>.cls-1{fill:none;}.cls-2{clip-path:url(#clip-path);}.cls-3{fill:#1f5572;}</style><clipPath id="clip-path"><rect class="cls-1" width="20.23" height="28.33"/></clipPath></defs><g id="Warstwa_2" data-name="Warstwa 2"><g id="Warstwa_1-2" data-name="Warstwa 1"><g class="cls-2"><g id="Group_62" data-name="Group 62"><path id="Path_70" data-name="Path 70" class="cls-3" d="M10,28.57a1.08,1.08,0,0,0,.71-.35c.35-.54,9.33-12.77,9.33-18A10.13,10.13,0,0,0,10,0,10.11,10.11,0,0,0,0,10.09c0,5.27,9,17.59,9.33,18a.9.9,0,0,0,.71.44ZM10,1.79a8.32,8.32,0,0,1,8.26,8.3c0,3.57-5.42,12-8.26,16-2.85-4-8.26-12.41-8.26-16A8.32,8.32,0,0,1,10,1.79"/><path id="Path_71" data-name="Path 71" class="cls-3" d="M15.28,9.82A5.27,5.27,0,0,0,10,4.55,5.21,5.21,0,0,0,4.8,9.73v.09A5.2,5.2,0,0,0,10,15.09H10a5.26,5.26,0,0,0,5.24-5.27m-8.71,0A3.49,3.49,0,0,1,10,6.34,3.42,3.42,0,0,1,13.5,9.72v.1a3.41,3.41,0,0,1-3.36,3.48H10A3.46,3.46,0,0,1,6.58,9.82"/></g></g></g></g></svg>