<svg xmlns="http://www.w3.org/2000/svg" xmlns:xlink="http://www.w3.org/1999/xlink" width="60.171" height="60.842" viewBox="0 0 60.171 60.842">
  <defs>
    <clipPath id="clip-path">
      <rect id="Rectangle_41" data-name="Rectangle 41" width="60.171" height="60.842" transform="translate(0 0)" fill="none"/>
    </clipPath>
  </defs>
  <g id="Group_59" data-name="Group 59" transform="translate(0 0)">
    <g id="Group_58" data-name="Group 58" clip-path="url(#clip-path)">
      <path id="Path_65" data-name="Path 65" d="M31.464,5.07H11.407a1.191,1.191,0,0,0-1.254,1.267V26.618a1.192,1.192,0,0,0,1.254,1.268H31.464a1.192,1.192,0,0,0,1.254-1.268V6.337A1.191,1.191,0,0,0,31.464,5.07M30.211,25.35H12.661V7.605h17.55Z" fill="#1d5470"/>
      <path id="Path_66" data-name="Path 66" d="M31.464,30.42H11.407a1.268,1.268,0,0,0,0,2.535H31.464a1.268,1.268,0,0,0,0-2.535" fill="#1d5470"/>
      <path id="Path_67" data-name="Path 67" d="M31.464,35.49H27.7a1.268,1.268,0,0,0,0,2.535h3.761a1.268,1.268,0,0,0,0-2.535" fill="#1d5470"/>
      <path id="Path_68" data-name="Path 68" d="M15.168,35.49H11.407a1.268,1.268,0,0,0,0,2.535h3.761a1.268,1.268,0,0,0,0-2.535" fill="#1d5470"/>
      <path id="Path_69" data-name="Path 69" d="M58.918,58.306H40.239V51.968a1.155,1.155,0,0,0-.376-.887l-2.131-2.155V22.054a5.08,5.08,0,0,1,4.639,5.07V47.151a7.521,7.521,0,1,0,15.042,0V15.463a1.576,1.576,0,0,0-.5-1.014L46.131,7.1a1.224,1.224,0,0,0-1.755.38,1.255,1.255,0,0,0,.376,1.774l5.015,3.423v6.971a1.191,1.191,0,0,0,1.253,1.268h3.887V47.151a5.015,5.015,0,1,1-10.029,0V27.125a7.6,7.6,0,0,0-7.146-7.6V3.8A3.714,3.714,0,0,0,33.972,0H8.9A3.714,3.714,0,0,0,5.14,3.8V48.927L3.009,51.082a1.155,1.155,0,0,0-.376.887v6.338H1.254a1.268,1.268,0,0,0,0,2.535H58.917a1.268,1.268,0,0,0,0-2.535ZM52.4,18.379V14.323L55.032,16.1v2.281ZM5.14,58.306v-5.83l2.131-2.155a1.157,1.157,0,0,0,.376-.888V3.8A1.191,1.191,0,0,1,8.9,2.535H33.972A1.191,1.191,0,0,1,35.226,3.8V49.433a1.16,1.16,0,0,0,.376.888l2.131,2.155v5.83Z" fill="#1d5470"/>
    </g>
  </g>
</svg>
