<svg xmlns="http://www.w3.org/2000/svg" viewBox="0 0 22.73 4.58"><defs><style>.cls-1{fill:#2d617e;}</style></defs><g id="Warstwa_2" data-name="Warstwa 2"><g id="Warstwa_1-2" data-name="Warstwa 1"><path class="cls-1" d="M0,2.28A1.94,1.94,0,0,1,.46.86,2.23,2.23,0,0,1,1.14.32a3,3,0,0,1,1-.29,2.2,2.2,0,0,1,2,1A2.15,2.15,0,0,1,4.5,2.79,2.26,2.26,0,0,1,2.91,4.48,2.63,2.63,0,0,1,1,4.22,2,2,0,0,1,.44,3.7,2,2,0,0,1,0,2.28Z"/><path class="cls-1" d="M22.73,2.34a1.91,1.91,0,0,1-1,1.84,2.18,2.18,0,0,1-1.91.29,2.31,2.31,0,0,1-1-.57A2.29,2.29,0,0,1,20.42,0a2.54,2.54,0,0,1,.75.14A2.08,2.08,0,0,1,22.73,2.34Z"/><path class="cls-1" d="M13.64,2.3c-.13,1.46-.88,2.25-2.26,2.25S9.22,3.76,9.09,2.28a2.28,2.28,0,1,1,4.55,0Z"/></g></g></svg>