<svg xmlns="http://www.w3.org/2000/svg" xmlns:xlink="http://www.w3.org/1999/xlink" width="68.692" height="68.296" viewBox="0 0 68.692 68.296">
  <defs>
    <clipPath id="clip-path">
      <rect id="Rectangle_43" data-name="Rectangle 43" width="68.692" height="68.296" transform="translate(0 0)" fill="none"/>
    </clipPath>
  </defs>
  <g id="Group_66" data-name="Group 66" transform="translate(0 0)">
    <g id="Group_65" data-name="Group 65" clip-path="url(#clip-path)">
      <path id="Path_72" data-name="Path 72" d="M4.349,31.037H35.991a1.447,1.447,0,0,1,1.486,1.482V63.978a1.452,1.452,0,0,1-1.486,1.485H4.349a1.459,1.459,0,0,1-1.493-1.485V32.519a1.453,1.453,0,0,1,1.493-1.482M32.705,2.844H64.347a1.453,1.453,0,0,1,1.49,1.48V35.785a1.449,1.449,0,0,1-1.49,1.475H40.339V32.519a4.362,4.362,0,0,0-4.349-4.327H31.216V4.323A1.449,1.449,0,0,1,32.705,2.844Zm0-2.843a4.358,4.358,0,0,0-4.349,4.323V28.192H4.348A4.359,4.359,0,0,0,0,32.518V63.977A4.356,4.356,0,0,0,4.348,68.3H35.991a4.359,4.359,0,0,0,4.349-4.319V40.107H64.348a4.36,4.36,0,0,0,4.344-4.323V4.323A4.357,4.357,0,0,0,64.348,0Z" fill="#1d516d"/>
      <path id="Path_73" data-name="Path 73" d="M14.847,40.149a3.884,3.884,0,1,1-3.883-3.861,3.872,3.872,0,0,1,3.883,3.861" fill="#1d516d"/>
      <path id="Path_74" data-name="Path 74" d="M33.258,40.149a3.884,3.884,0,1,1-3.883-3.861,3.871,3.871,0,0,1,3.883,3.861" fill="#1d516d"/>
      <path id="Path_75" data-name="Path 75" d="M14.847,56.347a3.884,3.884,0,1,1-3.883-3.86,3.873,3.873,0,0,1,3.883,3.86" fill="#1d516d"/>
      <path id="Path_76" data-name="Path 76" d="M33.258,56.347a3.884,3.884,0,1,1-3.883-3.86,3.872,3.872,0,0,1,3.883,3.86" fill="#1d516d"/>
      <path id="Path_77" data-name="Path 77" d="M24.053,48.247a3.884,3.884,0,1,1-3.883-3.861,3.872,3.872,0,0,1,3.883,3.861" fill="#1d516d"/>
      <path id="Path_78" data-name="Path 78" d="M43.2,11.956A3.883,3.883,0,1,1,39.321,8.1a3.872,3.872,0,0,1,3.883,3.86" fill="#1d516d"/>
      <path id="Path_79" data-name="Path 79" d="M61.613,28.153a3.883,3.883,0,1,1-3.883-3.86,3.872,3.872,0,0,1,3.883,3.86" fill="#1d516d"/>
      <path id="Path_80" data-name="Path 80" d="M52.411,20.055a3.883,3.883,0,1,1-3.883-3.861,3.872,3.872,0,0,1,3.883,3.861" fill="#1d516d"/>
    </g>
  </g>
</svg>
