<svg xmlns="http://www.w3.org/2000/svg" viewBox="0 0 51.82 51.88"><defs><style>.cls-1{fill:#2d617e;}</style></defs><g id="Warstwa_2" data-name="Warstwa 2"><g id="Warstwa_1-2" data-name="Warstwa 1"><path class="cls-1" d="M25.9,51.88a22,22,0,0,1-3.54-.34A24.2,24.2,0,0,1,19,50.87c-.36-.09-.7-.26-1.06-.39-.62-.21-1.26-.37-1.86-.63a20.38,20.38,0,0,1-2.67-1.27,21.93,21.93,0,0,1-3.49-2.34L8.14,44.67c-.34-.32-.69-.64-1-1-.5-.54-1-1.11-1.44-1.68-.22-.26-.46-.5-.67-.78S4.47,40.4,4.21,40s-.57-.93-.85-1.4a2,2,0,0,1-.11-.2c-.29-.58-.6-1.15-.85-1.75s-.58-1.44-.85-2.17a11.45,11.45,0,0,1-.46-1.36C.87,32.17.68,31.23.5,30.29S.21,28.6.11,27.76a15.67,15.67,0,0,1,0-4c.12-.95.27-1.89.44-2.83a16.91,16.91,0,0,1,.5-2.13c.33-1.06.7-2.1,1.09-3.14a12.57,12.57,0,0,1,.67-1.32c.48-.87.94-1.74,1.44-2.58a15.69,15.69,0,0,1,1-1.41c.46-.59.91-1.19,1.42-1.73C7.45,7.85,8.2,7.1,9,6.38c.44-.41.95-.74,1.4-1.13A18.41,18.41,0,0,1,12.92,3.6c.5-.29,1-.6,1.52-.84A18.35,18.35,0,0,1,17.7,1.45c.65-.16,1.28-.39,1.92-.59A19.72,19.72,0,0,1,22.46.33,18.76,18.76,0,0,1,26.69,0c.89.06,1.78.2,2.67.31.55.07,1.11.12,1.65.22a20,20,0,0,1,2,.5c1,.32,2.05.67,3.05,1.08a17.89,17.89,0,0,1,2.29,1.11c1,.62,2,1.29,3,2,.64.45,1.23,1,1.83,1.48.16.14.29.32.45.48.38.37.79.72,1.15,1.11s.84,1,1.26,1.48c.25.29.51.57.74.89s.57.87.85,1.31.43.72.64,1.09.3.54.44.82c.24.45.49.9.69,1.37.31.75.59,1.51.87,2.27.12.31.22.62.33.93a2.53,2.53,0,0,1,.12.36A27.26,27.26,0,0,1,51.38,22c.08.84.3,1.67.37,2.51a16.72,16.72,0,0,1-.17,4.41c-.13.7-.19,1.41-.35,2.1-.21.91-.47,1.8-.72,2.69,0,.18-.1.35-.16.51-.31.83-.61,1.67-.94,2.49-.24.57-.54,1.12-.82,1.67a6.58,6.58,0,0,1-.4.67c-.5.79-.95,1.62-1.52,2.36a30.64,30.64,0,0,1-2.1,2.46,25.65,25.65,0,0,1-2.21,2.09,16.64,16.64,0,0,1-2.62,1.87c-.43.24-.83.54-1.25.78s-1,.52-1.52.75-1.16.51-1.74.75c-.31.12-.63.21-.95.32s-.57.21-.86.3c-.44.13-.88.26-1.32.37A30.91,30.91,0,0,1,25.9,51.88Zm0-4.12,2.31-.1a21.82,21.82,0,0,0,3.31-.57,5.09,5.09,0,0,0,.77-.19c.84-.3,1.67-.63,2.5-.94l.29-.14,1.76-.94L37,44.8c.32-.23.64-.48,1-.69a13,13,0,0,0,2.37-1.75A30,30,0,0,0,43,39.6c.22-.3.44-.62.65-.93s.58-.84.85-1.27.51-.83.74-1.26.48-.89.68-1.36c.29-.68.54-1.38.82-2.07a13.91,13.91,0,0,0,.71-3,24.67,24.67,0,0,0,.16-6.19,15.35,15.35,0,0,0-1.06-4.77c-.37-.85-.68-1.74-1.06-2.6a13.11,13.11,0,0,0-.74-1.32c-.28-.45-.59-.9-.9-1.33-.45-.64-.9-1.28-1.39-1.88s-.88-.9-1.31-1.36a14.06,14.06,0,0,0-2.7-2.23c-.74-.47-1.49-.91-2.23-1.37a7.17,7.17,0,0,0-2-.92c-.13,0-.26-.11-.39-.16a14.82,14.82,0,0,0-1.74-.67,22.86,22.86,0,0,0-5.38-.79,23.85,23.85,0,0,0-6.47.67c-.37.1-.74.21-1.09.34-.62.22-1.23.45-1.84.71a12.2,12.2,0,0,0-1.42.66c-.7.4-1.37.85-2.05,1.29s-1.11.71-1.63,1.11a14.1,14.1,0,0,0-1.28,1.16A21.52,21.52,0,0,0,9.12,12,34,34,0,0,0,7,15a10,10,0,0,0-1.26,2.64,3.21,3.21,0,0,1-.12.33,17.08,17.08,0,0,0-.71,1.79,19.46,19.46,0,0,0-.51,2.41,24.71,24.71,0,0,0-.22,2.58c0,1.1,0,2.2,0,3.31a20.06,20.06,0,0,0,.57,3.51,4.87,4.87,0,0,0,.24.85c.26.7.56,1.39.83,2.09a12.84,12.84,0,0,0,1.35,2.6l.7,1c.25.38.47.8.76,1.16.48.59,1,1.15,1.52,1.71a16.06,16.06,0,0,0,3.71,3.07c.73.42,1.4.94,2.15,1.32s1.64.72,2.46,1.07a16.78,16.78,0,0,0,3.1.86A22.71,22.71,0,0,0,25.9,47.76Z"/><path class="cls-1" d="M11,25.93a2.52,2.52,0,0,1,.6-1.86,3.07,3.07,0,0,1,.89-.71A3.86,3.86,0,0,1,13.79,23a2.88,2.88,0,0,1,2.67,1.28,2.81,2.81,0,0,1,.45,2.34,2.88,2.88,0,0,1-2.08,2.2,3.3,3.3,0,0,1-2.47-.33,2.57,2.57,0,0,1-.76-.68A2.6,2.6,0,0,1,11,25.93Z"/><path class="cls-1" d="M40.8,26a2.52,2.52,0,0,1-1.27,2.41,2.87,2.87,0,0,1-2.5.38A3,3,0,0,1,37.77,23a3.17,3.17,0,0,1,1,.17A2.73,2.73,0,0,1,40.8,26Z"/><path class="cls-1" d="M28.89,26c-.17,1.92-1.16,2.95-3,2.95s-2.83-1-3-3a3,3,0,1,1,6,0Z"/></g></g></svg>