<svg xmlns="http://www.w3.org/2000/svg" viewBox="0 0 58.4 57.97"><defs><style>.cls-1{fill:#2e6481;}</style></defs><g id="Warstwa_2" data-name="Warstwa 2"><g id="Warstwa_1-2" data-name="Warstwa 1"><path class="cls-1" d="M29.2,58a29.31,29.31,0,0,1-17.78-6A28.88,28.88,0,0,1,14.6,3.88,29.38,29.38,0,0,1,49.85,8.49a28.86,28.86,0,0,1-4.43,44.6A29.23,29.23,0,0,1,29.2,58Zm0-54.63A26,26,0,0,0,12.8,9.17a25.59,25.59,0,0,0,6.53,43.54,26,26,0,0,0,31.38-9.46,25.54,25.54,0,0,0-3.23-32.4A25.8,25.8,0,0,0,29.2,3.34Z"/><path class="cls-1" d="M29.2,51.34a22.6,22.6,0,0,1-14.28-5.08A22.29,22.29,0,0,1,20.61,8.34a22.6,22.6,0,0,1,27.33,8.25A22.24,22.24,0,0,1,45.12,44.8,22.48,22.48,0,0,1,29.2,51.34ZM29.2,10A19.21,19.21,0,0,0,14,17.42a19,19,0,0,0,7.88,29.15,19.28,19.28,0,0,0,16.91-1.11A19,19,0,0,0,29.2,10Z"/></g></g></svg>